<svg width="136" height="35" viewBox="0 0 136 35" fill="none" xmlns="http://www.w3.org/2000/svg">
    <path
        d="M100.966 11.0941C100.977 20.8055 100.988 21.054 101.619 22.3179C102.076 23.2469 102.892 23.9707 103.926 24.3595C104.981 24.7484 106.798 24.8565 108.082 24.5864C108.561 24.4892 108.952 24.4028 108.963 24.3812C108.985 24.3595 108.713 20.6867 108.702 20.6867C108.691 20.6867 108.169 20.6867 107.538 20.6867C106.417 20.6867 106.385 20.6759 106.134 20.3842C105.993 20.2222 105.819 19.9089 105.765 19.6821C105.688 19.4228 105.645 16.3333 105.645 10.77V2.2685H103.306H100.966V11.0941Z"
        fill="white" />
    <path
        d="M93.9706 2.54939C92.9914 2.77624 92.1645 3.22994 91.392 3.96451C90.3149 4.96914 89.8144 6.04939 89.6621 7.71297L89.5968 8.47994L88.3782 8.51235L87.1488 8.54476V10.4244V12.3148H88.4H89.6512V18.4182V24.5216H91.9904H94.3296L94.3187 18.9259C94.3187 15.858 94.2752 13.1142 94.2317 12.8225L94.1446 12.3148H95.1891H96.2336L97.2128 10.5216C97.7568 9.52778 98.2138 8.68519 98.2246 8.63118C98.2464 8.57716 97.376 8.53395 96.2989 8.53395H94.3296V7.90741C94.3296 6.75155 94.9171 6.26544 96.4294 6.17902L97.2672 6.125L98.2464 4.51544L99.2256 2.90587L98.9318 2.79784C97.8112 2.37655 95.2218 2.24692 93.9706 2.54939Z"
        fill="white" />
    <path
        d="M7.85541 2.93827C7.56165 3.44599 6.09285 6.23303 6.09285 6.30864C6.09285 6.34105 6.57157 6.38426 7.15909 6.39506L8.23621 6.42747L5.69029 14.3133C4.29765 18.6451 2.98117 22.7176 2.78533 23.3657L2.41541 24.5216H4.89605H7.36581L7.88805 22.7176C8.17093 21.713 8.45381 20.7407 8.50821 20.5463L8.60613 20.2006H11.9572H15.3082L15.7108 21.6265C15.9392 22.4151 16.2112 23.3873 16.3309 23.787L16.5485 24.5216H19.1488C20.9114 24.5216 21.76 24.4892 21.76 24.4028C21.76 24.3488 20.2368 19.4985 18.3872 13.6327C16.5268 7.76698 14.9818 2.88426 14.9492 2.77624C14.8948 2.6034 14.6336 2.59259 11.4784 2.59259H8.07301L7.85541 2.93827ZM13.0452 12.2392C13.5892 14.1944 14.0352 15.8364 14.0352 15.8904C14.0352 15.9444 13.1431 15.9877 11.9028 15.9877C9.93349 15.9877 9.78117 15.9769 9.83557 15.7932C10.1184 14.8102 11.881 8.87963 11.9245 8.7608C11.9463 8.67438 11.9898 8.63117 12.0116 8.65278C12.0333 8.67438 12.5012 10.2948 13.0452 12.2392Z"
        fill="white" />
    <path d="M111.302 5.07717V7.12964H113.642H115.981V5.07717V3.0247H113.642H111.302V5.07717Z"
        fill="white" />
    <path
        d="M77.2481 6.31945V8.53395H76.2689H75.2897V10.4244V12.3148H76.258H77.2263L77.2807 16.4954C77.3242 21 77.3678 21.3133 77.9553 22.4691C78.2708 23.0849 79.163 23.9275 79.8049 24.1975C81.0669 24.7377 83.2865 24.8889 85.0925 24.5648L86.0609 24.3812L86.05 24.0463C86.05 23.8627 85.9629 23.0093 85.865 22.1451L85.6801 20.5787L85.1905 20.6327C84.9185 20.6651 84.2765 20.6867 83.7543 20.6867C82.9057 20.6867 82.786 20.6651 82.5249 20.4167C82.3617 20.2654 82.1767 20.0278 82.1114 19.8765C82.0353 19.7037 81.9591 18.321 81.9156 16.2037C81.8829 14.3349 81.8068 12.6929 81.7633 12.5633C81.6871 12.3256 81.7089 12.3256 82.6445 12.2932L83.6129 12.2608L84.6138 10.4784C85.1687 9.49537 85.6257 8.66358 85.6257 8.60957C85.6257 8.56636 84.7988 8.53395 83.7761 8.53395H81.9265V6.31945V4.10494H79.5873H77.2481V6.31945Z"
        fill="white" />
    <path
        d="M36.187 8.52317L34.4462 9.14972L34.0001 8.95527C31.8023 7.98305 28.6036 8.15589 26.6017 9.34416C25.6116 9.9383 24.9588 10.6297 24.4692 11.6127C23.6314 13.3087 23.6858 15.0803 24.6433 16.9491C24.9262 17.5216 25.8727 18.5587 26.482 18.98L26.7975 19.196L26.4494 19.7037C25.9271 20.4599 25.7857 20.8704 25.7857 21.6806C25.7857 22.588 26.025 23.1281 26.6343 23.679C27.4938 24.446 28.2446 24.6621 30.7687 24.8997C33.2711 25.1158 33.7281 25.3426 33.8151 26.4013C33.8586 26.8874 33.826 27.0062 33.5758 27.2979C33.1297 27.8272 32.4007 28.0216 31.1278 27.946C29.6154 27.8704 27.9617 27.2655 26.4385 26.25C26.1121 26.034 25.7857 25.8179 25.7095 25.7747C25.6225 25.7315 25.209 26.196 24.5345 27.0818L23.4791 28.4645L24.0449 28.9831C25.1546 29.9877 26.4385 30.7331 28.0705 31.2948C29.474 31.7917 30.3444 31.9213 31.9873 31.9105C34.7508 31.8781 36.4807 31.1219 37.6449 29.4368C38.1889 28.659 38.3521 27.9676 38.3521 26.5201C38.3521 25.2886 38.3303 25.1914 38.0039 24.5C37.3946 23.2253 36.4698 22.4368 34.9684 21.929C34.6094 21.7994 33.5975 21.6374 32.651 21.5402C30.9102 21.3565 30.29 21.2053 30.1812 20.9028C30.0833 20.6543 30.5402 20.2114 30.9428 20.1574C31.1278 20.125 31.6935 20.0494 32.194 19.9846C35.4798 19.5417 37.5361 17.2732 37.5361 14.0864C37.5361 13.6111 37.4599 12.9738 37.3729 12.6821C37.2858 12.3905 37.2097 12.1204 37.2097 12.0772C37.2097 12.0448 37.4273 11.7423 37.6993 11.4182L38.1889 10.8133V9.35497C38.1889 8.25311 38.1562 7.88583 38.0583 7.89663C37.9822 7.89663 37.1335 8.1775 36.187 8.52317ZM31.9111 11.9043C32.8359 12.3689 33.1732 14.1729 32.553 15.3503C32.1396 16.1497 31.5412 16.463 30.6273 16.3766C29.3652 16.2469 28.7342 15.5124 28.7233 14.1405C28.7233 12.7145 29.2455 11.9368 30.4097 11.6559C30.8449 11.5587 31.3998 11.6451 31.9111 11.9043Z"
        fill="white" />
    <path
        d="M46.2944 8.46914C44.064 8.90123 42.6279 9.94907 41.7248 11.8179C41.072 13.1898 40.8871 14.0756 40.8218 16.2037C40.7456 19.0556 41.1808 20.8596 42.3232 22.3827C43.433 23.8735 44.9018 24.554 47.3824 24.6944C50.4615 24.8673 52.8986 23.4954 54.2695 20.784L54.4979 20.341L52.7571 19.7685C51.7671 19.4444 50.9837 19.2392 50.9293 19.2932C50.8858 19.3472 50.6899 19.5957 50.4941 19.8549C50.0045 20.4923 49.4387 20.7515 48.416 20.8164C46.5447 20.946 45.6416 20.2654 45.424 18.5802L45.3479 17.9861H50.0698H54.7808L54.8135 16.9059C54.8787 14.7454 54.4435 12.4985 53.6819 11.159C52.9639 9.88426 51.7779 9.00926 50.2112 8.58796C49.3082 8.35031 47.2519 8.28549 46.2944 8.46914ZM49.0253 12.4769C49.6455 12.7793 50.0154 13.3086 50.1133 14.054L50.1786 14.5293H47.8176H45.4675L45.5328 14.1512C45.6634 13.4599 46.1203 12.7685 46.6099 12.5417C47.2627 12.2392 47.328 12.2284 47.9373 12.2176C48.3181 12.2068 48.6445 12.2932 49.0253 12.4769Z"
        fill="white" />
    <path
        d="M65.7805 8.43673C65.1168 8.59877 64.0397 9.16049 63.4304 9.67901C63.1258 9.93827 62.832 10.1543 62.7776 10.1543C62.7341 10.1543 62.6579 9.97068 62.6253 9.74383C62.5818 9.52778 62.4947 9.16049 62.4403 8.93364L62.3315 8.53395H60.0794H57.8272L56.8371 10.4028L55.8362 12.2608L57.1309 12.2932L58.4256 12.3256V18.4182V24.5216H60.7648H63.104V19.4985C63.104 15.1991 63.1258 14.4105 63.2781 14.0648C63.648 13.1682 64.4749 12.6497 65.5303 12.6389C66.281 12.6389 66.8359 12.8441 67.3255 13.3194C67.9783 13.946 68 14.1836 68 19.6281V24.5216H70.3501H72.6893L72.6567 18.6559C72.6131 13.071 72.6023 12.7577 72.3847 11.9691C71.808 9.94908 70.7853 8.93364 68.8595 8.47994C68.0979 8.3071 66.4551 8.2855 65.7805 8.43673Z"
        fill="white" />
    <path
        d="M109.975 10.392L108.942 12.2608L110.269 12.2932L111.585 12.3256L111.509 12.8873C111.466 13.2006 111.422 15.9444 111.422 18.9799L111.411 24.5216H113.75H116.09V16.5278V8.53395H113.544H110.998L109.975 10.392Z"
        fill="white" />
    <path
        d="M118.244 8.87963C118.744 9.68982 121.214 13.8704 121.9 15.037L122.639 16.3117L120.181 20.3411C118.831 22.5664 117.722 24.4136 117.722 24.4568C117.722 24.4892 118.821 24.5216 120.159 24.5216H122.596L124.141 22.0911C124.99 20.7515 125.718 19.6605 125.762 19.6605C125.806 19.6605 126.469 20.7515 127.242 22.0911L128.656 24.5216H131.191H133.737L133.519 24.1651C132.236 22.0478 128.819 16.3225 128.819 16.2793C128.819 16.2469 129.896 14.4969 131.202 12.3796L133.596 8.53395H130.854H128.112L127.133 10.2191C126.6 11.1482 126.067 12.0556 125.958 12.2284L125.762 12.5525L124.533 10.5756L123.314 8.58797L120.67 8.55556L118.026 8.53395L118.244 8.87963Z"
        fill="white" />
</svg>
    