<svg width="20" height="20" viewBox="0 0 20 20" fill="none" xmlns="http://www.w3.org/2000/svg">
    <g clip-path="url(#clip0_131_48117)">
    <path d="M16.2553 6.6331C15.0556 11.3457 11.3456 15.0557 6.63302 16.2554C4.84898 16.7096 3.33342 15.1744 3.33342 13.3335V12.5002C3.33342 12.0399 3.70744 11.6712 4.16543 11.6258C4.93921 11.5491 5.68187 11.3666 6.37873 11.0929L7.6448 12.3589C9.704 11.3735 11.3734 9.70408 12.3588 7.64488L11.0928 6.37882C11.3665 5.68196 11.549 4.9393 11.6257 4.16551C11.6711 3.70752 12.0398 3.3335 12.5001 3.3335H13.3334C15.1744 3.3335 16.7095 4.84905 16.2553 6.6331Z" stroke="#DEE1E6" stroke-width="0.833333" stroke-linecap="round" stroke-linejoin="round"/>
    </g>
    <defs>
    <clipPath id="clip0_131_48117">
    <rect width="20" height="20" fill="white"/>
    </clipPath>
    </defs>
    </svg>
    