<svg width="19" height="19" viewBox="0 0 19 19" fill="none" xmlns="http://www.w3.org/2000/svg">
    <path d="M9.0366 0.0927734C4.05401 0.0927734 0 4.14679 0 9.12938C0 14.112 4.05401 18.166 9.0366 18.166C14.0192 18.166 18.0732 14.112 18.0732 9.12938C18.0732 4.14679 14.0192 0.0927734 9.0366 0.0927734ZM14.0871 6.75132L8.31186 12.4813C7.97214 12.821 7.42859 12.8437 7.06622 12.5039L4.00872 9.71823C3.64635 9.37851 3.6237 8.8123 3.94077 8.44993C4.2805 8.08756 4.8467 8.06492 5.20907 8.40464L7.63242 10.6242L12.7962 5.46038C13.1586 5.09801 13.7248 5.09801 14.0871 5.46038C14.4495 5.82275 14.4495 6.38895 14.0871 6.75132Z" fill="#32D16D"/>
    </svg>
    